PathFileType	4	(X/Y/Z)	8_1_rein_29_p1_0-306_filt_butterworth.trc
DataRate	CameraRate	NumFrames	NumMarkers	Units	OrigDataRate	OrigDataStartFrame	OrigNumFrames
59.0	59.0	5	27	m	59.0	38	306
Frame#	Time	RHip			RKnee			RAnkle			RBigToe			RSmallToe			RHeel			LHip			LKnee			LAnkle			LBigToe			LSmallToe			LHeel			Neck			Head			Nose			RShoulder			RElbow			RWrist			RThumb			RIndex			RPinky			LShoulder			LElbow			LWrist			LThumb			LIndex			LPinky			
		X1	Y1	Z1	X2	Y2	Z2	X3	Y3	Z3	X4	Y4	Z4	X5	Y5	Z5	X6	Y6	Z6	X7	Y7	Z7	X8	Y8	Z8	X9	Y9	Z9	X10	Y10	Z10	X11	Y11	Z11	X12	Y12	Z12	X13	Y13	Z13	X14	Y14	Z14	X15	Y15	Z15	X16	Y16	Z16	X17	Y17	Z17	X18	Y18	Z18	X19	Y19	Z19	X20	Y20	Z20	X21	Y21	Z21	X22	Y22	Z22	X23	Y23	Z23	X24	Y24	Z24	X25	Y25	Z25	X26	Y26	Z26	X27	Y27	Z27	
38	0.6440677966101694	0.24559259102878167	0.7846386154633114	0.7768894908076815	0.2580512401637045	0.2447861132662864	0.8171241148294238	0.2264814312740801	-0.21388583158161192	0.888788304045229	0.208897200462449	-0.21040582411004294	0.6671678323380857	0.2759609658146132	-0.2579007893301882	0.7451120643349705	0.21426845303556405	-0.2668619448014194	0.9280840456443984	0.04149526229897179	0.7712082447415666	0.8047552372241625	0.03357185654620207	0.2640207264790467	0.8139404377797145	0.04129584251409422	-0.18159734788552173	0.8561789328043102	0.061156534632541906	-0.2246050024079542	0.6803672109192241	-0.001928333406125006	-0.204065156273232	0.710877788907173	0.06381972451036073	-0.26431228198408513	0.9350654219875637	0.1583694326975325	1.3535501277216573	0.8575012082628515	0.19593779433853514	1.6034423063069916	0.7998996632238086	0.16679075358535994	1.475580915003346	0.7182848203404011	0.31841724880653544	1.2271677670030192	0.7893149475131512	0.37527572930652575	0.9341455554697489	0.8368810105587499	0.3945034722896019	0.7001772559958059	0.6931975551129382	0.34444578335380654	0.5704428285655548	0.6238493850538531	0.36290543437910083	0.5540656622318108	0.622128179730232	0.3877442500421589	0.5124833514609585	0.7262995391693677	-0.035139993860819896	1.2343669663933114	0.8633253195006233	-0.05795350079945196	0.9469244352656176	0.8420863067341644	-0.11851565875796041	0.7226669220536424	0.6970397301502265	-0.09668021057134582	0.6094253823975089	0.6527464310816498	-0.1244572345385446	0.6087297719298015	0.6043094870916826	-0.12650645477912265	0.5851946064029072	0.6825511452464761	
39	0.6610169491525424	0.24630181320594424	0.7835382797256192	0.7792096692434842	0.25776996583901374	0.2450755308500225	0.8166286610203536	0.22610839856497933	-0.21270350753767417	0.8877923670142409	0.20944998777300966	-0.20981512751117315	0.6652561872354273	0.2758695709553025	-0.2579915880913631	0.7451716580686754	0.21426951514363907	-0.2667683808464895	0.9280907744700859	0.041311513424596186	0.7711019101041612	0.8052613560721499	0.03366614531547253	0.26321162486807215	0.8137185677300176	0.041333849212506095	-0.18233528770017254	0.8565462366654273	0.06146775247781347	-0.2272715064227825	0.6807417914530095	-0.0017897227276891573	-0.2046587294512931	0.710778229889177	0.06378558045898722	-0.2652769235870752	0.9355131193696237	0.15829115003055566	1.3529151165133515	0.8574709817545707	0.19543491692902076	1.60319400300454	0.7996147097031511	0.1659480906467709	1.4749354019904017	0.7180012474495008	0.3183692812070004	1.227924590282512	0.7891264917565223	0.3775597619226916	0.9338337002077411	0.8413098435127555	0.4009750571156314	0.6976383057201033	0.702902861752645	0.3544465262803841	0.5694415601731297	0.6269469485478352	0.3717138732189851	0.5510813561438901	0.6274041131435327	0.3947993369587421	0.5092519264026447	0.7353340677209482	-0.035034915166159405	1.2343415209796247	0.863234038275841	-0.05906041237642315	0.9457819082705311	0.8437917886626857	-0.12583507340068387	0.7204794728788341	0.7037122410035703	-0.10894535812915027	0.6057028440635709	0.6612656592012689	-0.13932568400976295	0.6085550511369151	0.6089928950552683	-0.14071429799694607	0.5789868946889224	0.6985736962612791	
40	0.6779661016949152	0.2467892416638328	0.7824076937320996	0.7814290854911737	0.25750045591026693	0.24528897453504747	0.8159855283126296	0.22581768078767742	-0.21153322704557037	0.8867805708628633	0.2103427055585201	-0.2090643719206054	0.6628293425258113	0.2756787934627186	-0.2574096042279685	0.7443984447223275	0.21426471873894834	-0.2667214708093306	0.9281097469060865	0.04114119103396648	0.770802947689226	0.8058346097034875	0.033760258970475354	0.2626291694656386	0.8134289410165512	0.041338931376226885	-0.18327699068016345	0.8567361342296443	0.06169639121991933	-0.22958416545574548	0.6806751242747966	-0.0022285182934994444	-0.20567487059835848	0.7106511950396976	0.06370019655064763	-0.2663036090523533	0.9359835253242084	0.15820754484282762	1.352235610768186	0.8574134446507733	0.19473742543150507	1.603127544213306	0.7998339759521049	0.16510574914351506	1.4742736866791166	0.7176492285341176	0.31832970030244817	1.2285215901848217	0.788935641541433	0.37875730902787325	0.934849263973449	0.8432230080529795	0.40616281541490695	0.6957690320954231	0.7120748548495445	0.3628966935204528	0.5677021651308567	0.6307742445168765	0.37946260486572625	0.546762942072957	0.6354693400901169	0.4010613431785658	0.5058070655554965	0.7455114196269306	-0.03495468372785758	1.2343883939541023	0.863023339455814	-0.059603047411851656	0.94496646174929	0.8446135389346998	-0.13188934612710027	0.7184700492799891	0.7112275547968057	-0.11898889471794534	0.6026156434778949	0.6690998737691937	-0.15292265754591505	0.6066469126089723	0.6172179232451733	-0.15294760672335386	0.5724814967803866	0.7146012271147368	
41	0.6949152542372882	0.2471194460081246	0.7814293746759846	0.7832062718221036	0.25723088638687475	0.24556380813710846	0.8151821524099664	0.22558367269011592	-0.21044644851398628	0.8857268658418969	0.21136578377748305	-0.20816986976943574	0.6601855861844413	0.2754203254379608	-0.25591495792257424	0.7424532564993644	0.21426050269264305	-0.2666957155712533	0.9281375664654761	0.04100419719722859	0.7702975192625743	0.806316507614948	0.033805010719605934	0.26230958434731677	0.8130353901965666	0.04132872606199333	-0.18426870075257568	0.8567100883268047	0.061704606108220456	-0.23051372653489036	0.6795159006784492	-0.0032467034221199823	-0.20650202455174604	0.709898229454113	0.06355809672464159	-0.26735989555885714	0.936482754758185	0.15813093693112165	1.3516016538041122	0.8573398055800128	0.19383421154199376	1.603129244609684	0.8002074877654758	0.16437272177016715	1.4736574972462726	0.7173494338266906	0.31832839938104623	1.2288657603173516	0.7888160982793317	0.37932240217814817	0.9368011720762144	0.8441648660021626	0.40985510654953905	0.6946043599851977	0.7201248269501953	0.3695230836933232	0.5650775447007368	0.636223561531175	0.38649256367769824	0.5411410108727096	0.6465885869045579	0.40560993608853013	0.5022741065268365	0.7560910915466283	-0.03495792405135864	1.2344426986671218	0.8628910194445616	-0.05964598419067128	0.9444894642546233	0.8445178206504796	-0.1377465168087622	0.7162287409664226	0.7209232679349944	-0.12729357921449447	0.5991641801639445	0.6788740101876292	-0.1653270712645758	0.6023573612113222	0.6297706171578892	-0.16325226350508826	0.566065387323457	0.7303726273872782	
42	0.711864406779661	0.24731529070383645	0.7806277078674798	0.7843444687299748	0.25695196372710577	0.2460357904736908	0.8142645635494772	0.2254032031460312	-0.20954476680529843	0.8847411775422072	0.21226947040580804	-0.20711351743172657	0.6575952967110485	0.2749950615741196	-0.25371191943855054	0.7395760618803685	0.2142583992215839	-0.266680424880884	0.9281641973325445	0.040863668091117814	0.7696138401962448	0.8066380643415788	0.03375942664959894	0.2622749927449684	0.812463053277815	0.04130366096922221	-0.18520452099840384	0.8565666034691038	0.061413409776086315	-0.22922495012280464	0.6768043374414437	-0.004564476610068691	-0.20631807380769898	0.7078476151757522	0.06335935882426927	-0.26845205095929936	0.9370360718943854	0.15807170400504011	1.3511023955905264	0.8572644223802718	0.19285745929856585	1.6030642942264282	0.8003523487723018	0.16376692088425188	1.473100687174169	0.7171521952994518	0.3183680115506728	1.2289470689774895	0.7887791646054936	0.379566644518925	0.939196203071771	0.8450471246890565	0.41202483166531967	0.6939185459072542	0.726905318582494	0.3744375358967622	0.5614836480632899	0.6441101080891931	0.3928602028964566	0.5344694472547175	0.6602235797643752	0.407877959796906	0.49886809953591976	0.765982926259034	-0.03500803886727631	1.2345282477989132	0.8628198389800517	-0.05946092538113442	0.9442710566803014	0.8440459301781468	-0.14399560245246806	0.7136398422807724	0.7332665591486129	-0.1346673066059881	0.5952220006466088	0.6913940334866938	-0.17667350668908116	0.5961995566910008	0.6459544947594856	-0.1718658358614319	0.5603069388585669	0.745318596206264	
